<svg xmlns="http://www.w3.org/2000/svg" xmlns:xlink="http://www.w3.org/1999/xlink" width="2000" zoomAndPan="magnify" viewBox="0 0 1500 1499.999933" height="2000" preserveAspectRatio="xMidYMid meet" version="1.0"><path fill="#f7b731" d="M 154.796875 385.417969 C 175.882812 353.933594 197.269531 322.152344 224.59375 296.316406 C 267.363281 255.625 322.308594 230.972656 376.363281 207.210938 C 480.910156 161.175781 590.804688 114.546875 704.558594 122.863281 C 776.136719 127.910156 844.449219 154.640625 915.433594 163.847656 C 947.808594 168.007812 980.476562 168.898438 1012.257812 175.136719 C 1054.730469 183.15625 1095.125 200.378906 1132.84375 221.171875 C 1276.59375 299.582031 1358.273438 444.523438 1398.964844 506.597656 C 1398.964844 506.597656 1447.375 581.144531 1480.9375 692.820312 C 1487.472656 714.503906 1483.3125 729.648438 1475.886719 738.558594 C 1470.839844 744.5 1463.710938 748.359375 1459.851562 755.191406 C 1445.296875 781.921875 1499.945312 807.761719 1488.660156 835.980469 C 1482.71875 851.125 1462.523438 853.203125 1449.75 863.601562 C 1431.335938 878.449219 1432.820312 906.964844 1439.652344 929.832031 C 1446.484375 952.40625 1457.472656 975.871094 1452.128906 999.035156 C 1409.65625 1003.195312 1375.5 1047.449219 1382.035156 1089.625 C 1383.816406 1101.207031 1387.972656 1114.871094 1380.25 1123.78125 C 1375.796875 1128.828125 1368.667969 1130.609375 1362.132812 1132.394531 C 1315.207031 1144.273438 1270.0625 1163.875 1229.371094 1189.714844 C 1221.351562 1194.765625 1213.035156 1200.703125 1209.472656 1209.613281 C 1202.9375 1225.355469 1213.628906 1244.957031 1204.71875 1259.511719 C 1193.730469 1277.925781 1166.109375 1270.5 1145.613281 1264.265625 C 1077.007812 1243.769531 996.8125 1268.71875 952.261719 1325.152344 C 938.601562 1342.378906 927.3125 1362.871094 908.304688 1374.15625 C 889.296875 1385.445312 858.703125 1380.691406 853.0625 1359.308594 C 851.28125 1352.773438 852.171875 1345.644531 850.089844 1339.109375 C 847.714844 1331.386719 841.179688 1325.746094 834.648438 1320.695312 C 777.621094 1277.628906 692.972656 1275.550781 633.871094 1315.648438 C 623.769531 1322.476562 613.96875 1330.496094 602.089844 1332.578125 C 566.746094 1338.8125 547.441406 1294.558594 529.324219 1263.375 C 495.464844 1206.347656 422.101562 1176.351562 358.246094 1192.980469 C 337.160156 1198.625 316.664062 1208.425781 294.984375 1207.238281 C 273.300781 1206.050781 250.433594 1186.152344 256.667969 1165.359375 C 262.609375 1145.460938 290.824219 1136.253906 291.714844 1115.464844 C 250.136719 1074.179688 202.910156 1029.925781 144.398438 1028.144531 C 126.28125 1027.546875 105.195312 1030.222656 93.019531 1016.558594 C 79.652344 1001.710938 87.078125 977.652344 97.769531 960.722656 C 108.460938 943.792969 122.125 925.675781 118.855469 905.777344 C 114.699219 881.125 87.375 869.242188 63.910156 860.035156 C 41.339844 850.53125 14.90625 834.492188 16.09375 809.542969 C 17.875 774.496094 74.601562 754.894531 65.097656 721.035156 C 56.484375 690.742188 0.0546875 685.097656 6.292969 654.210938 C 7.777344 646.488281 13.417969 640.546875 18.46875 634.308594 C 34.210938 615.597656 55.296875 585.898438 63.613281 522.039062 " fill-opacity="1" fill-rule="nonzero"/><path fill="#c29c4e" d="M 1238.578125 335.519531 C 1257.289062 375.914062 1292.039062 416.601562 1305.703125 466.203125 C 1319.363281 515.804688 1307.484375 541.050781 1319.660156 559.761719 C 1331.839844 578.472656 1338.078125 590.945312 1338.078125 618.867188 C 1338.078125 646.785156 1388.269531 653.019531 1319.660156 662.527344 C 1250.757812 671.734375 1243.332031 677.96875 1184.820312 706.1875 C 1126.308594 734.105469 1162.839844 723.117188 1102.550781 750.441406 C 1042.257812 777.765625 1051.464844 759.351562 998.597656 787.269531 C 945.726562 815.1875 849.199219 917.953125 945.726562 815.1875 C 1042.257812 712.421875 913.949219 771.527344 1102.550781 690.742188 C 1291.148438 609.957031 1306.890625 669.058594 1291.445312 609.65625 C 1276 550.257812 1314.910156 590.054688 1262.636719 525.011719 C 1210.363281 459.964844 1244.519531 525.308594 1210.363281 459.964844 C 1176.207031 394.625 1187.492188 403.832031 1184.820312 372.644531 C 1182.445312 341.460938 1154.226562 350.964844 1182.445312 341.460938 C 1210.660156 332.550781 1238.578125 335.519531 1238.578125 335.519531 Z M 1238.578125 335.519531 " fill-opacity="1" fill-rule="nonzero"/><path fill="#c29c4e" d="M 72.226562 824.691406 C 126.875 804.496094 90.9375 821.722656 126.875 804.496094 C 162.816406 787.269531 159.546875 767.667969 185.980469 775.09375 C 212.414062 782.515625 215.683594 779.84375 215.683594 787.566406 C 215.683594 795.289062 192.21875 803.011719 181.527344 807.761719 C 170.832031 812.515625 162.816406 820.238281 162.816406 824.988281 C 162.816406 829.742188 158.0625 838.949219 153.605469 846.671875 C 149.152344 854.394531 120.9375 860.332031 120.9375 860.332031 L 109.945312 840.433594 L 97.472656 832.710938 Z M 72.226562 824.691406 " fill-opacity="1" fill-rule="nonzero"/><path fill="#c29c4e" d="M 193.40625 999.035156 C 215.386719 992.796875 225.78125 1000.519531 237.957031 983.589844 C 249.839844 966.363281 246.867188 958.347656 253.105469 957.75 C 259.34375 957.15625 253.105469 943.199219 259.34375 957.15625 C 265.578125 971.117188 267.660156 983.589844 266.765625 999.035156 C 265.875 1014.480469 275.082031 1033.488281 275.082031 1035.566406 C 275.082031 1037.648438 304.785156 1050.417969 275.082031 1037.945312 C 245.382812 1025.46875 223.105469 1019.234375 193.703125 1010.023438 C 164.300781 1000.816406 145.589844 999.925781 137.867188 997.253906 C 130.144531 994.582031 106.679688 999.332031 130.144531 994.582031 C 153.605469 989.828125 193.703125 986.859375 193.703125 986.859375 L 193.703125 999.035156 Z M 193.40625 999.035156 " fill-opacity="1" fill-rule="nonzero"/><path fill="#c29c4e" d="M 332.109375 1164.765625 C 349.335938 1158.53125 361.214844 1157.042969 369.53125 1156.746094 C 387.648438 1155.855469 391.511719 1160.3125 405.171875 1135.957031 C 425.371094 1100.316406 426.855469 1100.316406 444.082031 1090.8125 C 461.308594 1081.605469 490.710938 1050.417969 490.710938 1050.417969 C 490.710938 1050.417969 496.949219 1036.160156 496.949219 1057.84375 C 496.949219 1079.523438 485.960938 1106.257812 489.226562 1120.214844 C 492.492188 1134.175781 528.136719 1179.320312 529.621094 1185.558594 C 531.105469 1191.792969 524.570312 1191.792969 506.15625 1180.804688 C 487.742188 1169.816406 523.382812 1172.488281 453.289062 1164.171875 C 383.195312 1155.855469 332.109375 1164.765625 332.109375 1164.765625 Z M 332.109375 1164.765625 " fill-opacity="1" fill-rule="nonzero"/><path fill="#c29c4e" d="M 646.046875 1268.421875 C 646.046875 1252.085938 603.871094 1266.046875 646.046875 1203.082031 C 688.222656 1140.113281 664.164062 1146.351562 703.074219 1112.789062 C 741.980469 1079.226562 741.980469 1079.226562 741.980469 1079.226562 C 741.980469 1079.226562 745.542969 1046.558594 748.21875 1095.5625 C 751.1875 1144.570312 750.59375 1181.992188 763.664062 1203.082031 C 776.730469 1224.167969 779.105469 1217.039062 779.105469 1238.128906 C 779.105469 1259.214844 781.484375 1266.046875 734.851562 1268.421875 C 688.222656 1270.796875 671.589844 1268.421875 671.589844 1268.421875 Z M 646.046875 1268.421875 " fill-opacity="1" fill-rule="nonzero"/><path fill="#c29c4e" d="M 929.988281 1294.261719 C 938.304688 1231.296875 932.363281 1247.632812 938.304688 1204.269531 C 944.242188 1160.90625 935.925781 1165.65625 946.621094 1127.046875 C 957.015625 1088.4375 943.054688 1103.582031 960.578125 1074.476562 C 978.101562 1045.371094 981.667969 1021.90625 985.230469 1027.847656 C 988.792969 1033.785156 965.332031 1086.355469 985.230469 1109.523438 C 1005.128906 1132.988281 989.984375 1129.421875 1019.089844 1151.699219 C 1048.195312 1173.972656 1050.574219 1169.222656 1050.574219 1183.179688 C 1050.574219 1197.140625 1057.699219 1192.386719 1034.238281 1214.664062 C 1010.773438 1236.941406 1009.585938 1243.769531 995.625 1261.292969 C 981.667969 1278.816406 973.351562 1292.777344 961.765625 1301.09375 C 950.183594 1309.410156 929.988281 1294.261719 929.988281 1294.261719 Z M 929.988281 1294.261719 " fill-opacity="1" fill-rule="nonzero"/><path fill="#c29c4e" d="M 1261.746094 1113.085938 C 1275.703125 1055.765625 1275.703125 1089.625 1275.703125 1048.933594 C 1275.703125 1007.945312 1267.386719 1009.132812 1268.578125 984.78125 C 1269.765625 960.425781 1268.578125 952.109375 1268.578125 952.109375 C 1268.578125 952.109375 1282.535156 944.980469 1283.722656 952.109375 C 1284.910156 959.238281 1266.792969 941.714844 1291.742188 999.925781 C 1316.394531 1058.4375 1303.625 1085.167969 1328.273438 1097.941406 C 1352.925781 1110.710938 1352.925781 1110.710938 1352.925781 1110.710938 C 1352.925781 1110.710938 1380.546875 1104.769531 1356.195312 1117.839844 C 1331.839844 1130.609375 1335.402344 1136.550781 1286.398438 1138.925781 C 1237.390625 1141.304688 1237.390625 1141.304688 1237.390625 1141.304688 Z M 1261.746094 1113.085938 " fill-opacity="1" fill-rule="nonzero"/><path fill="#c29c4e" d="M 1383.222656 989.234375 C 1362.132812 947.058594 1362.132812 969.632812 1362.132812 939.039062 C 1362.132812 908.449219 1362.132812 884.984375 1362.132812 884.984375 C 1362.132812 884.984375 1328.273438 774.199219 1362.132812 867.164062 C 1395.992188 960.128906 1401.339844 991.609375 1414.703125 998.738281 C 1428.070312 1005.867188 1373.71875 1009.132812 1371.339844 1018.636719 C 1368.964844 1028.144531 1365.996094 1036.160156 1365.996094 1036.160156 Z M 1383.222656 989.234375 " fill-opacity="1" fill-rule="nonzero"/><path fill="#c29c4e" d="M 1416.785156 860.035156 C 1397.179688 835.085938 1394.804688 851.71875 1392.429688 830.039062 C 1390.054688 808.355469 1378.171875 814 1381.738281 800.039062 C 1385.300781 786.082031 1374.609375 772.121094 1381.738281 775.089844 C 1388.863281 778.0625 1388.863281 789.644531 1407.578125 804.792969 C 1426.289062 819.941406 1419.160156 811.328125 1433.414062 817.265625 C 1447.671875 823.207031 1455.691406 830.039062 1455.691406 830.039062 C 1455.691406 830.039062 1420.050781 843.105469 1416.785156 867.164062 C 1413.515625 891.222656 1416.785156 860.035156 1416.785156 860.035156 Z M 1416.785156 860.035156 " fill-opacity="1" fill-rule="nonzero"/><path fill="#c29c4e" d="M 48.167969 649.457031 C 67.179688 650.347656 86.484375 641.140625 98.066406 625.695312 C 101.929688 620.648438 105.195312 614.707031 110.839844 612.332031 C 118.855469 608.765625 129.253906 614.707031 131.628906 623.320312 C 134.003906 631.933594 129.847656 641.4375 122.71875 646.488281 C 115.292969 652.128906 104.898438 653.617188 98.660156 660.445312 C 95.988281 663.417969 94.207031 667.277344 91.53125 670.542969 C 85.296875 677.671875 74.601562 680.347656 65.988281 676.78125 C 57.375 673.21875 51.4375 663.714844 52.328125 654.210938 " fill-opacity="1" fill-rule="nonzero"/><path fill="#c29c4e" d="M 545.660156 796.179688 C 552.785156 796.179688 559.617188 796.179688 566.746094 796.179688 C 578.328125 796.179688 578.328125 778.359375 566.746094 778.359375 C 559.617188 778.359375 552.785156 778.359375 545.660156 778.359375 C 534.074219 778.359375 534.074219 796.179688 545.660156 796.179688 Z M 545.660156 796.179688 " fill-opacity="1" fill-rule="nonzero"/><path fill="#c29c4e" d="M 643.671875 838.949219 C 684.957031 839.246094 726.238281 839.542969 767.523438 839.839844 C 779.105469 839.839844 779.105469 822.019531 767.523438 822.019531 C 726.238281 821.722656 684.957031 821.425781 643.671875 821.128906 C 632.382812 821.128906 632.382812 838.949219 643.671875 838.949219 Z M 643.671875 838.949219 " fill-opacity="1" fill-rule="nonzero"/><path fill="#c29c4e" d="M 926.421875 945.574219 C 951.667969 947.355469 976.617188 944.980469 1001.269531 938.445312 C 1012.257812 935.476562 1007.507812 918.546875 996.515625 921.21875 C 973.351562 927.160156 950.183594 929.238281 926.421875 927.457031 C 914.839844 926.863281 915.136719 944.683594 926.421875 945.574219 Z M 926.421875 945.574219 " fill-opacity="1" fill-rule="nonzero"/><path fill="#c29c4e" d="M 1106.113281 883.5 C 1113.835938 879.640625 1121.855469 875.777344 1129.578125 871.917969 C 1134.03125 869.835938 1134.921875 863.601562 1132.84375 859.738281 C 1130.171875 855.285156 1125.121094 854.394531 1120.667969 856.472656 C 1112.945312 860.332031 1104.925781 864.195312 1097.203125 868.054688 C 1093.042969 870.132812 1091.855469 876.371094 1093.933594 880.234375 C 1096.3125 884.6875 1101.65625 885.578125 1106.113281 883.5 Z M 1106.113281 883.5 " fill-opacity="1" fill-rule="nonzero"/><path fill="#c29c4e" d="M 484.472656 490.261719 C 471.40625 531.246094 462.496094 591.242188 512.394531 611.441406 C 534.371094 620.351562 558.132812 616.191406 579.8125 608.765625 C 609.8125 598.371094 638.621094 585.007812 668.621094 574.910156 C 696.835938 565.402344 734.257812 553.226562 750.59375 587.679688 C 761.878906 611.738281 756.535156 640.25 742.871094 662.230469 C 735.742188 673.515625 726.238281 683.613281 714.953125 691.039062 C 709.605469 694.601562 688.519531 707.96875 681.984375 704.996094 C 676.640625 702.621094 689.113281 675 692.082031 669.652344 C 699.804688 656.882812 710.199219 647.082031 722.972656 639.953125 C 732.773438 634.308594 723.863281 618.867188 714.0625 624.507812 C 695.648438 634.902344 680.796875 650.347656 671.886719 669.652344 C 666.539062 681.535156 655.550781 709.15625 668.324219 719.550781 C 680.5 729.054688 706.042969 716.582031 717.03125 710.046875 C 734.851562 699.949219 750 684.800781 760.097656 666.683594 C 778.511719 633.714844 781.484375 582.925781 748.515625 557.382812 C 730.398438 543.425781 707.230469 544.910156 686.441406 550.257812 C 658.519531 557.382812 631.195312 568.671875 604.464844 579.363281 C 576.84375 590.648438 540.3125 609.65625 511.503906 591.539062 C 478.535156 571.046875 491.601562 524.417969 500.808594 494.714844 C 504.96875 484.023438 487.742188 479.273438 484.472656 490.261719 Z M 484.472656 490.261719 " fill-opacity="1" fill-rule="nonzero"/><path fill="#c29c4e" d="M 816.53125 481.351562 C 807.324219 491.152344 804.945312 502.734375 804.648438 516.101562 C 804.351562 533.03125 802.273438 551.148438 805.539062 567.78125 C 811.183594 593.917969 836.429688 612.925781 863.160156 610.550781 C 889.296875 608.171875 910.976562 586.195312 912.761719 560.058594 C 915.136719 524.121094 888.40625 497.390625 863.753906 475.410156 C 855.140625 467.6875 842.667969 480.460938 851.28125 487.882812 C 867.316406 502.140625 885.734375 517.882812 892.5625 538.96875 C 899.691406 561.246094 891.375 585.898438 867.019531 591.835938 C 842.964844 597.777344 823.953125 577.878906 822.171875 555.304688 C 821.578125 544.910156 822.765625 533.921875 822.765625 523.527344 C 822.765625 513.128906 821.578125 502.140625 829.300781 493.824219 C 837.023438 485.507812 824.550781 473.035156 816.53125 481.351562 Z M 816.53125 481.351562 " fill-opacity="1" fill-rule="nonzero"/><path fill="#c29c4e" d="M 942.460938 420.761719 C 910.085938 428.484375 907.710938 473.628906 920.484375 498.578125 C 936.519531 529.761719 978.398438 528.277344 997.109375 500.0625 C 1020.574219 464.71875 998.597656 423.136719 983.449219 389.574219 C 963.546875 345.320312 945.726562 304.628906 910.976562 269.582031 C 906.523438 265.128906 900.285156 266.910156 897.019531 271.367188 C 880.980469 293.046875 901.769531 320.074219 913.949219 338.191406 C 931.472656 364.625 951.371094 389.574219 971.863281 413.929688 C 988.496094 433.828125 1006.910156 463.828125 1031.5625 474.222656 C 1049.976562 481.945312 1071.660156 475.113281 1077.898438 455.214844 C 1081.460938 444.226562 1064.234375 439.472656 1060.671875 450.460938 C 1052.058594 478.378906 1019.386719 442.144531 1011.367188 432.9375 C 998 417.492188 984.636719 402.050781 971.863281 386.308594 C 958.796875 370.269531 946.324219 353.933594 934.441406 337.003906 C 925.828125 324.234375 900.582031 295.71875 912.167969 280.277344 C 907.414062 280.871094 902.960938 281.464844 898.207031 282.058594 C 938.304688 322.152344 961.46875 376.507812 981.667969 429.078125 C 990.875 453.136719 996.515625 495.308594 963.25 503.625 C 928.800781 511.941406 917.808594 445.117188 947.214844 437.988281 C 958.203125 435.015625 953.449219 418.085938 942.460938 420.761719 Z M 942.460938 420.761719 " fill-opacity="1" fill-rule="nonzero"/><path fill="#c29c4e" d="M 1018.792969 305.820312 C 1005.128906 333.144531 999.488281 397.59375 1043.445312 402.050781 C 1059.484375 403.832031 1071.660156 392.84375 1074.332031 377.695312 C 1078.492188 355.714844 1061.265625 339.082031 1059.484375 318.292969 C 1053.839844 319.777344 1048.492188 321.261719 1042.851562 322.75 C 1054.730469 342.054688 1071.957031 355.121094 1093.933594 361.0625 C 1104.925781 364.03125 1109.675781 346.804688 1098.6875 343.835938 C 1081.164062 339.082031 1067.800781 328.984375 1058.292969 313.539062 C 1054.136719 306.414062 1040.769531 308.789062 1041.660156 317.996094 C 1042.554688 327.203125 1044.929688 335.222656 1048.492188 343.539062 C 1052.355469 352.449219 1060.671875 366.113281 1056.214844 376.507812 C 1047.601562 397.296875 1029.78125 372.347656 1027.40625 361.65625 C 1023.839844 345.617188 1026.8125 328.984375 1033.941406 314.433594 C 1039.285156 304.628906 1023.839844 295.71875 1018.792969 305.820312 Z M 1018.792969 305.820312 " fill-opacity="1" fill-rule="nonzero"/><path fill="#c29c4e" d="M 301.21875 296.613281 C 344.878906 254.4375 481.800781 220.28125 489.523438 214.042969 C 497.246094 207.804688 486.554688 235.726562 545.660156 201.570312 C 604.761719 167.414062 575.359375 151.671875 627.335938 151.671875 C 679.3125 151.671875 663.273438 162.660156 703.371094 164.144531 C 743.464844 165.628906 726.238281 165.628906 779.402344 170.382812 C 832.269531 175.136719 810.589844 176.621094 868.210938 181.371094 C 925.828125 186.125 963.25 195.332031 975.726562 198.597656 C 988.199219 201.570312 885.4375 225.03125 847.417969 214.042969 C 809.105469 203.054688 765.445312 184.34375 723.566406 190.578125 C 681.390625 196.816406 668.917969 192.066406 644.265625 210.777344 C 619.316406 229.488281 650.503906 243.445312 546.253906 269.878906 C 442.003906 296.316406 390.621094 321.261719 374.878906 324.53125 C 359.433594 327.5 405.46875 319.777344 341.019531 324.53125 C 276.570312 329.28125 265.875 334.925781 265.875 334.925781 Z M 301.21875 296.613281 " fill-opacity="1" fill-rule="nonzero"/><path fill="#c29c4e" d="M 1423.910156 720.144531 C 1426.882812 701.433594 1441.136719 721.628906 1423.910156 664.011719 C 1406.683594 606.390625 1394.210938 603.421875 1394.210938 576.691406 C 1394.210938 549.960938 1378.765625 531.546875 1394.210938 541.644531 C 1409.65625 551.742188 1428.070312 600.152344 1432.226562 618.867188 C 1436.386719 637.578125 1414.40625 659.257812 1439.355469 675 C 1464.304688 690.445312 1455.394531 720.144531 1455.394531 720.144531 Z M 1423.910156 720.144531 " fill-opacity="1" fill-rule="nonzero"/><path fill="#c29c4e" d="M 145.886719 452.539062 C 145.886719 459.074219 110.246094 513.128906 110.246094 513.128906 L 242.117188 764.101562 C 305.972656 850.828125 397.152344 917.359375 499.324219 951.515625 C 601.199219 985.671875 710.496094 987.75 817.71875 987.75 L 431.308594 876.074219 C 383.789062 839.542969 320.824219 765.882812 278.351562 723.414062 C 259.640625 704.699219 229.046875 667.574219 215.386719 645.003906 C 180.042969 587.085938 183.605469 518.773438 169.644531 452.539062 " fill-opacity="1" fill-rule="nonzero"/></svg>